<?xml version="1.0" standalone="no"?><!DOCTYPE svg PUBLIC "-//W3C//DTD SVG 1.1//EN" "http://www.w3.org/Graphics/SVG/1.1/DTD/svg11.dtd"><svg t="1541124557548" class="icon" style="" viewBox="0 0 1024 1024" version="1.1" xmlns="http://www.w3.org/2000/svg" p-id="3465" xmlns:xlink="http://www.w3.org/1999/xlink" width="22" height="22"><defs><style type="text/css"></style></defs><path d="M512.299 599.484m-26.909 0a26.909 26.909 0 1 0 53.818 0 26.909 26.909 0 1 0-53.818 0Z" fill="#949494" p-id="3466"></path><path d="M512.299 666.38m-26.909 0a26.909 26.909 0 1 0 53.818 0 26.909 26.909 0 1 0-53.818 0Z" fill="#949494" p-id="3467"></path><path d="M189.868 440.4c-1.87 0-3.774-0.276-5.657-0.854-10.16-3.119-15.867-13.886-12.746-24.043 35.134-114.381 128.57-205.25 243.845-237.138 10.25-2.848 20.845 3.177 23.68 13.419s-3.174 20.845-13.417 23.677C322.84 243.881 239.57 324.863 208.26 426.801c-2.543 8.279-10.16 13.599-18.392 13.599zM421.076 861.646c-1.687 0-3.4-0.223-5.105-0.69-114.204-31.357-204.693-117.224-242.063-229.686-3.352-10.088 2.106-20.977 12.194-24.33 10.086-3.357 20.98 2.111 24.33 12.194 33.307 100.23 113.954 176.757 215.728 204.704 10.25 2.816 16.278 13.403 13.464 23.656-2.347 8.541-10.096 14.152-18.548 14.152zM598.787 861.63c-8.452 0-16.201-5.606-18.546-14.151-2.816-10.247 3.209-20.84 13.459-23.656 101.745-27.947 182.371-104.463 215.678-204.672 3.349-10.088 14.239-15.546 24.332-12.194 10.086 3.352 15.543 14.247 12.191 24.33-37.367 112.44-127.838 198.291-242.007 229.654-1.704 0.467-3.42 0.689-5.107 0.689zM830.014 440.618c-8.237 0-15.856-5.325-18.394-13.61-31.267-102.044-114.562-183.1-217.378-211.546-10.245-2.832-16.252-13.435-13.417-23.677 2.835-10.247 13.419-16.278 23.68-13.419 115.371 31.914 208.833 122.868 243.914 237.366 3.113 10.163-2.599 20.924-12.761 24.038a19.187 19.187 0 0 1-5.644 0.848zM509.908 315.867c-10.629 0-19.246-8.614-19.246-19.243V138.012c0-10.629 8.616-19.243 19.246-19.243 10.629 0 19.246 8.614 19.246 19.243v158.612c0 10.629-8.617 19.243-19.246 19.243zM509.908 920.606c-10.629 0-19.246-8.614-19.246-19.243v-158.85c0-10.629 8.616-19.243 19.246-19.243 10.629 0 19.246 8.614 19.246 19.243v158.85c0 10.629-8.617 19.243-19.246 19.243zM286.966 538.822H128.344c-10.629 0-19.246-8.614-19.246-19.243 0-10.629 8.616-19.243 19.246-19.243h158.622c10.629 0 19.246 8.614 19.246 19.243 0 10.629-8.616 19.243-19.246 19.243zM891.474 538.822H732.849c-10.629 0-19.246-8.614-19.246-19.243 0-10.629 8.616-19.243 19.246-19.243h158.625c10.629 0 19.246 8.614 19.246 19.243 0 10.629-8.616 19.243-19.246 19.243zM512.605 534.796c-52.141 0-94.56-42.416-94.56-94.555s42.419-94.555 94.56-94.555c52.139 0 94.558 42.416 94.558 94.555s-42.419 94.555-94.558 94.555z m0-150.624c-30.917 0-56.069 25.152-56.069 56.069s25.152 56.069 56.069 56.069c30.914 0 56.066-25.152 56.066-56.069s-25.152-56.069-56.066-56.069z" fill="#949494" p-id="3468"></path><path d="M662.057 693.455c-10.629 0-19.246-8.614-19.246-19.243 0-71.801-58.411-130.214-130.206-130.214-71.798 0-130.209 58.413-130.209 130.214 0 10.629-8.616 19.243-19.246 19.243s-19.246-8.614-19.246-19.243c0-93.022 75.678-168.7 168.7-168.7 93.019 0 168.697 75.678 168.697 168.7 0.001 10.63-8.615 19.243-19.244 19.243z" fill="#949494" p-id="3469"></path><path d="M509.908 761.755c-133.542 0-242.187-108.642-242.187-242.187s108.645-242.187 242.187-242.187 242.187 108.642 242.187 242.187S643.45 761.755 509.908 761.755z m0-445.888c-112.318 0-203.696 91.383-203.696 203.701s91.378 203.701 203.696 203.701 203.696-91.383 203.696-203.701-91.378-203.701-203.696-203.701z" fill="#949494" p-id="3470"></path></svg>