<?xml version="1.0" standalone="no"?><!DOCTYPE svg PUBLIC "-//W3C//DTD SVG 1.1//EN" "http://www.w3.org/Graphics/SVG/1.1/DTD/svg11.dtd"><svg t="1541124520418" class="icon" style="" viewBox="0 0 1024 1024" version="1.1" xmlns="http://www.w3.org/2000/svg" p-id="3189" xmlns:xlink="http://www.w3.org/1999/xlink" width="22" height="22"><defs><style type="text/css"></style></defs><path d="M929.700799 783.940552c2.189875-5.970992 3.387144-12.418844 3.387144-19.142989L933.087942 259.202437c0-30.908964-25.031093-55.873542-55.909357-55.873542L146.820392 203.328895c-30.705326 0-55.909357 25.015743-55.909357 55.873542l0 505.594103c0 20.535709 11.04966 38.44766 27.52182 48.157813 1.957585-2.552126 4.3951-5.208629 7.324826-7.940856l162.692383-151.71333c22.606881-21.081131 57.868989-20.010753 79.063707 2.716878l8.626471 9.250688 0 0L253.866407 779.291672c-14.052041 13.104459-16.795525 24.467251-9.41851 30.993898 1.689479-2.022053 3.671623-4.104481 5.954619-6.232958l332.526419-310.085314c22.561855-21.039175 57.878199-19.835767 78.908164 2.716878l267.24153 286.582017C929.288406 783.490298 929.496138 783.715425 929.700799 783.940552zM66.140884 260.956384c0-46.033429 37.180807-83.350336 83.489506-83.350336L874.367563 177.606047c46.110177 0 83.489506 37.389562 83.489506 83.350336l0 502.087233c0 46.032406-37.180807 83.350336-83.489506 83.350336L149.630391 846.393953c-46.110177 0-83.489506-37.389562-83.489506-83.350336L66.140884 260.956384zM276.685111 409.109632c34.199916 0 61.924351-28.79072 61.924351-64.306608 0-35.515888-27.724435-64.306608-61.924351-64.306608s-61.924351 28.79072-61.924351 64.306608C214.76076 380.318912 242.485195 409.109632 276.685111 409.109632z" p-id="3190" fill="#949494"></path></svg>